<mxfile host="app.diagrams.net" modified="2022-03-28T05:54:23.057Z" agent="5.0 (Macintosh; Intel Mac OS X 10_15_7) AppleWebKit/605.1.15 (KHTML, like Gecko) Version/14.1.2 Safari/605.1.15" etag="foIMwU_StRoM6fu3c2fI" version="17.1.3" type="github">
  <diagram id="qPzYGMmBj0JJTQFqLS9e" name="Page-1">
    <mxGraphModel dx="1869" dy="620" grid="1" gridSize="10" guides="1" tooltips="1" connect="1" arrows="1" fold="1" page="1" pageScale="1" pageWidth="827" pageHeight="1169" math="0" shadow="0">
      <root>
        <mxCell id="0" />
        <mxCell id="1" parent="0" />
        <mxCell id="aL47bXIf19a72PtmntDi-3" value="" style="edgeStyle=orthogonalEdgeStyle;rounded=0;orthogonalLoop=1;jettySize=auto;html=1;fontSize=16;" parent="1" source="aL47bXIf19a72PtmntDi-1" target="aL47bXIf19a72PtmntDi-2" edge="1">
          <mxGeometry relative="1" as="geometry" />
        </mxCell>
        <mxCell id="aL47bXIf19a72PtmntDi-1" value="Add question set&amp;nbsp;" style="rounded=0;whiteSpace=wrap;html=1;" parent="1" vertex="1">
          <mxGeometry x="95" y="80" width="110" height="60" as="geometry" />
        </mxCell>
        <mxCell id="aL47bXIf19a72PtmntDi-5" value="" style="edgeStyle=orthogonalEdgeStyle;rounded=0;orthogonalLoop=1;jettySize=auto;html=1;fontSize=16;" parent="1" source="aL47bXIf19a72PtmntDi-2" target="aL47bXIf19a72PtmntDi-4" edge="1">
          <mxGeometry relative="1" as="geometry" />
        </mxCell>
        <mxCell id="aL47bXIf19a72PtmntDi-2" value="Add questions" style="whiteSpace=wrap;html=1;rounded=0;" parent="1" vertex="1">
          <mxGeometry x="360" y="80" width="120" height="60" as="geometry" />
        </mxCell>
        <mxCell id="O_sgAuHdKDhm1UQH1MkK-2" value="" style="edgeStyle=orthogonalEdgeStyle;rounded=0;orthogonalLoop=1;jettySize=auto;html=1;fontSize=16;" edge="1" parent="1" source="aL47bXIf19a72PtmntDi-4" target="O_sgAuHdKDhm1UQH1MkK-1">
          <mxGeometry relative="1" as="geometry" />
        </mxCell>
        <mxCell id="aL47bXIf19a72PtmntDi-4" value="Assigne to auditee" style="whiteSpace=wrap;html=1;rounded=0;" parent="1" vertex="1">
          <mxGeometry x="610" y="80" width="120" height="60" as="geometry" />
        </mxCell>
        <mxCell id="O_sgAuHdKDhm1UQH1MkK-4" value="" style="edgeStyle=orthogonalEdgeStyle;rounded=0;orthogonalLoop=1;jettySize=auto;html=1;fontSize=16;" edge="1" parent="1" source="O_sgAuHdKDhm1UQH1MkK-1" target="O_sgAuHdKDhm1UQH1MkK-3">
          <mxGeometry relative="1" as="geometry" />
        </mxCell>
        <mxCell id="O_sgAuHdKDhm1UQH1MkK-1" value="answer and document submit by auditee" style="whiteSpace=wrap;html=1;rounded=0;" vertex="1" parent="1">
          <mxGeometry x="610" y="210" width="120" height="60" as="geometry" />
        </mxCell>
        <mxCell id="O_sgAuHdKDhm1UQH1MkK-6" value="" style="edgeStyle=orthogonalEdgeStyle;rounded=0;orthogonalLoop=1;jettySize=auto;html=1;fontSize=16;" edge="1" parent="1" source="O_sgAuHdKDhm1UQH1MkK-3" target="O_sgAuHdKDhm1UQH1MkK-5">
          <mxGeometry relative="1" as="geometry" />
        </mxCell>
        <mxCell id="O_sgAuHdKDhm1UQH1MkK-3" value="Auditor &amp;nbsp;review and ask the questions or clarify via system or mail" style="whiteSpace=wrap;html=1;rounded=0;" vertex="1" parent="1">
          <mxGeometry x="360" y="210" width="120" height="60" as="geometry" />
        </mxCell>
        <mxCell id="O_sgAuHdKDhm1UQH1MkK-8" value="" style="edgeStyle=orthogonalEdgeStyle;rounded=0;orthogonalLoop=1;jettySize=auto;html=1;fontSize=16;" edge="1" parent="1" source="O_sgAuHdKDhm1UQH1MkK-5" target="O_sgAuHdKDhm1UQH1MkK-7">
          <mxGeometry relative="1" as="geometry" />
        </mxCell>
        <mxCell id="O_sgAuHdKDhm1UQH1MkK-5" value="auditee will respond and close query" style="whiteSpace=wrap;html=1;rounded=0;" vertex="1" parent="1">
          <mxGeometry x="90" y="210" width="120" height="60" as="geometry" />
        </mxCell>
        <mxCell id="O_sgAuHdKDhm1UQH1MkK-10" value="" style="edgeStyle=orthogonalEdgeStyle;rounded=0;orthogonalLoop=1;jettySize=auto;html=1;fontSize=16;" edge="1" parent="1" source="O_sgAuHdKDhm1UQH1MkK-7" target="O_sgAuHdKDhm1UQH1MkK-9">
          <mxGeometry relative="1" as="geometry" />
        </mxCell>
        <mxCell id="O_sgAuHdKDhm1UQH1MkK-14" value="" style="edgeStyle=orthogonalEdgeStyle;rounded=0;orthogonalLoop=1;jettySize=auto;html=1;fontSize=16;" edge="1" parent="1" source="O_sgAuHdKDhm1UQH1MkK-7" target="O_sgAuHdKDhm1UQH1MkK-13">
          <mxGeometry relative="1" as="geometry" />
        </mxCell>
        <mxCell id="O_sgAuHdKDhm1UQH1MkK-7" value="Auditor will accept the response or not" style="whiteSpace=wrap;html=1;rounded=0;" vertex="1" parent="1">
          <mxGeometry x="90" y="350" width="120" height="60" as="geometry" />
        </mxCell>
        <mxCell id="O_sgAuHdKDhm1UQH1MkK-17" value="" style="edgeStyle=orthogonalEdgeStyle;rounded=0;orthogonalLoop=1;jettySize=auto;html=1;fontSize=16;" edge="1" parent="1" source="O_sgAuHdKDhm1UQH1MkK-9" target="O_sgAuHdKDhm1UQH1MkK-16">
          <mxGeometry relative="1" as="geometry" />
        </mxCell>
        <mxCell id="O_sgAuHdKDhm1UQH1MkK-9" value="Auditor will accept the inputs" style="whiteSpace=wrap;html=1;rounded=0;" vertex="1" parent="1">
          <mxGeometry x="360" y="350" width="120" height="60" as="geometry" />
        </mxCell>
        <mxCell id="O_sgAuHdKDhm1UQH1MkK-13" value="&lt;div&gt;if not the the loop&lt;/div&gt;&lt;div&gt;&amp;nbsp;opens up and can&lt;/div&gt;&lt;div&gt;&amp;nbsp;be escalated&lt;/div&gt;" style="rhombus;whiteSpace=wrap;html=1;rounded=0;align=center;" vertex="1" parent="1">
          <mxGeometry x="-90" y="310" width="132.5" height="140" as="geometry" />
        </mxCell>
        <mxCell id="O_sgAuHdKDhm1UQH1MkK-19" value="" style="edgeStyle=orthogonalEdgeStyle;rounded=0;orthogonalLoop=1;jettySize=auto;html=1;fontSize=16;" edge="1" parent="1" source="O_sgAuHdKDhm1UQH1MkK-16" target="O_sgAuHdKDhm1UQH1MkK-18">
          <mxGeometry relative="1" as="geometry" />
        </mxCell>
        <mxCell id="O_sgAuHdKDhm1UQH1MkK-16" value="auditor will make a report as per standard format&amp;nbsp;" style="whiteSpace=wrap;html=1;rounded=0;" vertex="1" parent="1">
          <mxGeometry x="620" y="350" width="120" height="60" as="geometry" />
        </mxCell>
        <mxCell id="O_sgAuHdKDhm1UQH1MkK-21" value="" style="edgeStyle=orthogonalEdgeStyle;rounded=0;orthogonalLoop=1;jettySize=auto;html=1;fontSize=16;" edge="1" parent="1" source="O_sgAuHdKDhm1UQH1MkK-18" target="O_sgAuHdKDhm1UQH1MkK-20">
          <mxGeometry relative="1" as="geometry" />
        </mxCell>
        <mxCell id="O_sgAuHdKDhm1UQH1MkK-18" value="&amp;nbsp;report will be sent to auditee team and the managers&amp;nbsp;" style="whiteSpace=wrap;html=1;rounded=0;" vertex="1" parent="1">
          <mxGeometry x="620" y="490" width="120" height="60" as="geometry" />
        </mxCell>
        <mxCell id="O_sgAuHdKDhm1UQH1MkK-20" value="CEO and others want to see the report and will be given a URL for read only access .&lt;br&gt;1.) while the access is read only they can also put their comments&lt;br&gt;" style="shape=parallelogram;perimeter=parallelogramPerimeter;whiteSpace=wrap;html=1;fixedSize=1;rounded=0;" vertex="1" parent="1">
          <mxGeometry x="100" y="490" width="440" height="60" as="geometry" />
        </mxCell>
      </root>
    </mxGraphModel>
  </diagram>
</mxfile>
